<svg width="20" height="20" viewBox="0 0 24 24" fill="#ffffff" xmlns="http://www.w3.org/2000/svg">
  <path d="M24 4.56c-.89.39-1.84.65-2.84.77A4.93 4.93 0 0023.34 3c-.95.56-2.01.96-3.13 1.18A4.92 4.92 0 0016.62 2c-2.72 0-4.93 2.21-4.93 4.93 0 .39.04.76.13 1.12C7.75 7.85 4.1 5.9 1.67 2.9c-.43.75-.68 1.61-.68 2.53 0 1.75.89 3.3 2.23 4.21a4.92 4.92 0 01-2.23-.62v.06c0 2.45 1.74 4.5 4.06 4.97-.42.12-.86.18-1.32.18-.32 0-.63-.03-.93-.09.63 1.98 2.46 3.42 4.63 3.46A9.87 9.87 0 010 19.54a13.94 13.94 0 007.56 2.21c9.05 0 14-7.5 14-14 0-.21-.01-.42-.02-.63A10 10 0 0024 4.56z"></path>
</svg>
