<svg width="26" height="20" viewBox="0 0 24 24" fill="#ffffff" xmlns="http://www.w3.org/2000/svg">
  <path d="M23.5 6.2s-.2-1.65-.8-2.38c-.77-.93-1.63-.93-2.03-.98C17.5 2.5 12 2.5 12 2.5h-.02s-5.5 0-8.65.34c-.4.05-1.26.05-2.03.98C.7 4.55.5 6.2.5 6.2S0 8.14 0 10.08v1.84c0 1.94.5 3.88.5 3.88s.2 1.65.8 2.38c.77.93 1.78.9 2.23 1 1.62.15 8.47.34 8.47.34s5.5 0 8.65-.34c.4-.05 1.26-.05 2.03-.98.6-.73.8-2.38.8-2.38s.5-1.94.5-3.88v-1.84c0-1.94-.5-3.88-.5-3.88zM9.75 14.2V7.96l6.05 3.12-6.05 3.12z"></path>
</svg>
